<?xml version="1.0" encoding="utf-8" ?>
<svg xmlns="http://www.w3.org/2000/svg" xmlns:xlink="http://www.w3.org/1999/xlink" width="1024" height="1024">
	<g>
		<path fill="#344960" d="M598.378 11.6991C598.517 11.6701 598.654 11.6331 598.794 11.6122C603.087 10.9694 608.409 12.2128 612.601 13.0739C639.644 18.6286 639.332 42.6408 649.394 62.9338C653.539 71.2929 659.372 78.5417 666.266 84.8063C686.537 103.229 713.77 110.266 739.924 115.744C747.035 117.234 762.973 119.151 768.487 123.773C769.598 124.704 769.792 125.34 770.001 126.728C769.39 127.994 768.553 128.618 767.324 129.235C749.968 137.951 711.653 131.793 693.388 125.277C678.186 135.717 664.551 143.414 645.761 145.224C641.044 145.678 636.133 146.057 631.408 145.529C632.835 146.633 634.375 147.714 635.668 148.972C636.544 149.824 636.753 150.054 636.675 151.3C636.559 153.148 635.543 154.181 634.2 155.298C642.759 157.52 652.175 157.463 660.972 158.58C683.929 161.497 706.781 164.846 729.87 166.665C738.008 167.306 754.409 166.943 761.278 169.078C762.057 169.321 762.92 169.721 763.279 170.487C765.505 175.227 755.959 193.965 753.842 199.321C758.184 201.591 762.392 204.652 766.484 207.358Q784.87 219.404 801.902 233.298C866.959 285.842 914.378 350.425 941.142 429.91C953.639 467.022 959.264 505.394 959.659 544.476C960.417 619.569 942.183 689.016 908.959 756.004C918.508 747.296 928.927 739.665 938.946 731.531C938.184 728.187 937.835 724.416 938.181 721.005C938.946 713.481 943.097 707.3 948.811 702.588C963.696 690.313 985.193 688.843 1003.63 690.639C999.239 705.036 992.722 718.907 982.517 730.141C976.199 737.096 967.538 743.833 957.739 744.068C951.418 744.219 945.421 741.541 940.837 737.29C928.476 746.447 910.572 759.872 901.11 771.575C895.579 778.415 891.479 786.48 886.815 793.934Q876.934 809.643 865.754 824.455Q862.325 828.931 858.783 833.319Q855.242 837.706 851.59 842.003Q847.939 846.299 844.179 850.501Q840.42 854.704 836.555 858.81Q832.69 862.915 828.723 866.922Q824.755 870.928 820.687 874.832Q816.619 878.737 812.453 882.537Q808.287 886.337 804.027 890.03Q799.766 893.723 795.413 897.307Q791.06 900.891 786.617 904.363Q782.175 907.836 777.646 911.194Q773.116 914.553 768.504 917.795Q763.891 921.038 759.197 924.162Q754.503 927.287 749.732 930.292Q744.961 933.296 740.115 936.179Q735.269 939.061 730.351 941.82C634.418 996.541 500.954 1016.72 393.934 986.109C349.696 973.456 310.512 953.103 272.66 927.212Q260.06 918.491 248.089 908.925Q236.118 899.359 224.833 888.993C220.734 885.216 216.617 881.408 212.754 877.388C206.278 870.648 197.778 859.078 189.563 854.841C182.997 851.453 174.719 850.445 167.539 848.695C161.035 847.11 154.577 845.293 148.12 843.525C142.574 841.894 136.68 840.537 131.386 838.215C128.312 843.961 124.874 849.084 119.266 852.653C112.035 857.255 103.473 856.834 95.4755 854.881C72.0006 849.149 53.5858 827.948 41.4464 808.088C55.4768 801.941 71.1427 798.033 86.5151 798.138C99.8676 798.229 114.873 801.273 124.452 811.341C130.233 817.418 132.578 824.777 132.487 832.987C139.248 834.024 146.047 835.989 152.725 837.509Q166.796 840.625 180.952 843.33C162.449 822.091 145.805 799.861 131.698 775.447C127.944 768.951 124.253 762.353 120.84 755.673C117.538 749.21 114.796 741.569 110.091 735.982C101.786 726.121 89.6178 718.752 78.7808 711.957C70.8633 722.964 59.616 732.645 47.2281 738.273C45.4252 739.092 43.3845 740.172 41.4204 740.455Q41.1048 740.499 40.7863 740.511Q40.4679 740.524 40.1497 740.504Q39.8316 740.485 39.517 740.434Q39.2024 740.383 38.8944 740.302Q38.5864 740.22 38.2881 740.108Q37.9897 739.996 37.704 739.855Q37.4182 739.713 37.1479 739.545Q36.8776 739.376 36.6254 739.181C35.1231 737.997 34.2869 736.18 34.2432 734.276C34.2027 732.51 34.5976 731.24 35.9914 730.113C39.6672 727.14 45.0467 725.376 49.1739 723.015C56.687 718.717 63.0531 712.624 69.1709 706.575C62.4641 701.892 55.2985 697.634 48.1837 693.601C42.2669 690.247 16.5257 678.611 13.7281 674.52C13.1424 673.663 12.9517 672.122 13.1535 671.128C13.6313 668.774 15.7575 667.346 17.5297 665.975C32.2533 668.347 90.007 702.897 102.924 714.396C100.433 706.443 97.3704 698.672 94.9195 690.691C91.4777 679.482 89.7482 665.741 83.2383 655.825C77.7144 647.412 68.7923 639.952 61.5791 632.991C59.5309 634.146 57.5933 635.098 55.2716 635.568C49.9712 636.643 44.9394 635.451 40.4823 632.441C27.6854 623.799 22.5704 605.676 19.9999 591.377C30.1706 592.308 39.7696 593.389 49.3209 597.263C56.515 600.18 64.5788 605.353 67.5327 612.867C69.4752 617.808 68.7112 622.16 66.6678 626.839Q74.2607 634.526 81.6443 642.415Q80.4078 636.87 79.3221 631.295Q78.2364 625.719 77.3024 620.115Q76.3684 614.512 75.5867 608.885Q74.805 603.258 74.1762 597.613Q73.5475 591.967 73.0721 586.306Q72.5968 580.645 72.2751 574.974Q71.9535 569.302 71.7858 563.624Q71.6181 557.946 71.6046 552.265Q71.591 546.584 71.7316 540.905Q71.8721 535.226 72.1666 529.553Q72.4612 523.88 72.9095 518.217Q73.3578 512.554 73.9596 506.905Q74.5613 501.257 75.3161 495.626Q76.0709 489.996 76.9782 484.388Q77.8854 478.781 78.9444 473.199Q80.0035 467.618 81.2135 462.068Q82.0822 458.087 83.029 454.123Q83.9758 450.16 85.0003 446.216Q86.0248 442.272 87.1266 438.349Q88.2283 434.426 89.407 430.525Q90.5856 426.624 91.8406 422.747Q93.0956 418.871 94.4266 415.019Q95.7576 411.168 97.1639 407.343Q98.5703 403.519 100.052 399.723Q101.533 395.927 103.088 392.16Q104.644 388.394 106.273 384.659Q107.902 380.924 109.605 377.221Q111.307 373.519 113.081 369.851Q114.856 366.183 116.703 362.55Q118.549 358.918 120.466 355.322Q122.384 351.727 124.372 348.169Q126.359 344.612 128.416 341.095Q130.474 337.577 132.6 334.101Q134.725 330.624 136.919 327.19Q139.113 323.756 141.374 320.366Q143.635 316.976 145.962 313.631Q148.289 310.286 150.681 306.987Q153.073 303.688 155.53 300.437Q157.986 297.186 160.506 293.984Q163.026 290.781 165.609 287.629Q168.191 284.477 170.835 281.376Q173.479 278.276 176.183 275.227Q178.888 272.179 181.651 269.185Q184.415 266.19 187.237 263.251Q190.059 260.311 192.938 257.427Q195.817 254.544 198.752 251.717Q201.688 248.891 204.678 246.122Q207.668 243.354 210.712 240.645C229.855 223.713 250.583 209.046 272.027 195.196C272.276 186.839 273.317 178.707 275.867 170.715C280.331 156.719 288.696 143.999 301.988 137.137Q315.152 139.489 328.238 142.238C328.691 141.387 329.164 140.487 329.771 139.736C332.194 136.736 340.504 137.537 344.241 137.028C339.166 131.385 327.649 121.088 324.752 114.889C324.036 113.358 324.199 112.551 324.793 111.019C329.507 106.66 350.408 105.069 357.277 104.164C353.598 100 347.243 93.4673 345.56 88.2306C345.109 86.8241 345.245 86.241 345.856 84.9398C349.605 82.256 370.479 84.5443 376.487 84.5475C374.285 80.7513 366.872 69.0432 366.424 65.3906C366.322 64.5583 366.812 64.3864 367.335 63.8219C375.038 61.2165 393.487 64.8653 401.641 67.2211C398.799 62.1663 394.87 54.9035 394.198 49.1452C394.552 48.3922 394.464 48.1921 395.276 47.8238C400.542 45.4327 422.359 52.7326 428.582 54.8031C426.989 48.4159 425.033 40.5325 425.1 33.9305C425.115 32.4621 425.215 31.871 426.233 30.8236C429.294 30.3108 433.652 32.2118 436.447 33.4891C475.633 51.4012 507.097 85.6932 525.395 124.258C529.291 132.468 532.014 140.931 535.138 149.434C548.624 151.346 562.646 152.049 576.252 152.759C585.8 153.256 595.403 153.93 604.962 154.005C607.986 152.165 611.128 150.486 614.214 148.75C613.372 147.608 612.624 146.361 611.846 145.171C603.816 141.992 595.937 138.784 588.996 133.519C571.193 120.016 562.855 98.3914 559.935 76.8528C557.674 60.1794 557.085 41.0326 567.945 27.0537C575.59 17.2133 586.383 13.2441 598.378 11.6991ZM687.399 466.695C671.035 462.469 653.866 460.308 637.289 456.803L527.425 432.863L360.709 397.18C336.469 391.979 312.38 386.058 288.038 381.315C274.219 412.98 253.618 431.406 226.376 451.158C217.579 457.536 208.644 463.635 200.213 470.507C224.195 462.552 284.689 453.833 309.527 456.513C324.174 446.08 335.025 439.691 353.699 442.947C379.384 447.424 405.473 470.23 421.662 489.899C393.702 500.549 352.962 506.924 325.185 494.451C316.904 490.732 308.63 484.388 305.35 475.592C304.094 472.224 303.309 467.858 304.692 464.442C306.559 463.098 308.515 463.374 310.712 463.713C315.895 464.511 321.858 466.611 326.683 468.712C330.859 470.531 335.74 471.465 340.174 472.549C354.314 476.005 368.406 478.269 382.719 480.674C385.892 481.207 388.953 482.099 392.185 482.21C386.869 479.803 380.65 478.657 375.002 477.237Q363.389 474.352 351.855 471.165C343.681 468.868 322.391 461.279 315.397 460.655C310.539 460.221 305.367 461.218 300.488 461.482C293.65 461.854 286.756 461.852 279.936 462.462C257.748 464.447 235.705 468.388 213.941 473.036C206.678 474.586 198.656 475.591 191.737 478.263C185.312 480.744 179.737 486.495 174.648 490.973C155.06 508.209 130.474 533.403 120.36 557.733C118.936 561.158 117.937 564.645 117.621 568.355C116.796 578.041 118.116 588.025 119.08 597.671Q121.16 619.712 124.919 641.53Q128.678 663.348 134.095 684.814C137.998 699.906 142.591 714.784 148.652 729.161C172.999 786.912 226.355 848.185 278.95 882.247C293.942 891.956 309.458 899.574 326.006 906.269C380.056 928.135 443.998 949.332 502.583 950.283C511.588 950.429 520.349 950.644 529.233 948.808C528.353 931.791 514.587 918.327 502.626 907.538C491.721 897.701 480.217 888.848 467.524 881.43C454.748 887.904 441.153 891.496 427.058 886.883C410.442 881.446 389.839 862.556 382.345 846.936C381.48 845.131 381.027 843.642 381.153 841.644C382.212 839.481 385.084 838.419 387.232 837.678C404.907 831.578 432.656 830.845 449.564 839.258C458.592 843.749 465.398 851.261 468.579 860.873C469.855 864.729 470.499 868.845 470.925 872.876C465.643 870.735 460.651 867.976 455.49 865.57Q445.133 860.859 434.443 856.964C428.479 854.818 422.356 852.842 416.24 851.186C411.951 850.025 407.423 849.232 403.269 847.661L402.274 848.298L402.414 848.048L403.176 848.447C405.868 849.829 408.894 850.651 411.689 851.834C419.07 854.956 464.975 876.084 468.357 875.5C468.979 875.392 469.703 874.925 470.265 874.638C471.348 874.085 471.909 873.817 473.163 874.147C477.366 875.255 481.96 878.9 485.582 881.309C503.926 893.511 520.202 907.158 532.527 925.642C534.991 917.141 539.468 910.461 544.335 903.191C559.235 880.937 569.065 864.776 554.994 839.078C538.587 809.114 504.751 786.008 475.98 769.083C467.542 764.119 458.855 758.775 449.703 755.232C399.477 780.285 329.841 811.191 273.059 792.477C258.64 787.726 244.204 778.442 237.211 764.516C232.789 755.709 232.145 745.993 235.262 736.642C239.3 724.53 249.029 715.936 260.212 710.389C297.189 692.046 348.691 703.116 386.037 715.907C404.85 722.352 423.902 730.028 441.602 739.081C457.264 731.661 472.732 723.79 488.443 716.491C459.562 692.699 438.547 662.374 434.832 624.266C431.619 591.304 445.362 558.34 465.976 533.172C468.382 530.235 472.07 525.77 476.107 525.505C479.206 525.303 481.775 527.038 483.901 529.113C485.385 530.562 486.711 532.314 487.939 533.977C483.915 541.227 479.024 547.913 474.707 554.982C467.456 566.859 461.532 580.214 457.798 593.631C467.935 583.14 487.344 560.86 502.531 560.425C505.544 560.338 508.627 561.243 510.772 563.439C512.984 565.704 513.956 568.826 513.878 571.949C513.673 580.134 505.8 587.898 500.08 593.029C493.587 598.855 486.123 603.556 479.684 609.397C480.64 615.928 481.897 625.469 487.432 629.827C489.678 631.596 491.889 632.298 494.727 631.852C495.693 631.7 496.655 631.498 497.613 631.302C512.305 625.657 524.619 611.295 530.941 597.141C533.976 590.344 536.317 583.118 538.69 576.068C539.962 572.293 541.004 568.273 542.786 564.709C543.626 563.027 544.51 561.498 546.282 560.679C548.921 559.461 552.519 560.331 555.006 561.518C557.301 562.613 559.662 564.383 560.433 566.917C562.808 574.723 555.706 588.437 552.224 595.227C561.834 584.791 581.216 561.728 595.626 560.992C598.738 560.833 602.092 562.63 604.243 564.795C606.227 566.791 606.628 569.051 606.504 571.779C605.955 583.928 586.272 620.687 591.144 629.759C591.892 630.201 591.936 630.436 592.849 630.26C597.794 629.308 611.424 613.39 614.249 608.482C616.946 603.796 617.252 597.848 618.838 592.732C623.082 579.045 636.928 566.866 650.393 562.71C656.938 560.689 664.507 560.232 670.665 563.661C674.473 565.782 677.56 569.175 678.679 573.45C679.949 578.302 678.72 583.017 676.074 587.174C670.593 595.785 660.4 601.571 650.556 603.556C646.863 604.301 643.006 604.577 639.243 604.589C638.22 611.874 636.512 620.243 641.369 626.593C643.106 628.864 645.143 630.001 647.737 631.059C668.119 627.926 676.172 604.863 683.604 602.233C684.372 601.961 685.29 602.222 686.055 602.372C686.624 602.949 687.017 603.044 686.993 603.928C686.834 609.714 673.358 621.722 668.897 625.372C660.938 631.883 650.79 638.366 640.054 637.45C632.736 636.825 626.556 632.695 622.026 627.101C619.482 623.961 617.801 620.581 616.001 616.995C609.117 624.729 599.931 636.63 588.752 637.539C584.269 637.904 580.096 636.314 576.761 633.338C572.278 629.338 570.217 623.717 570.054 617.803C569.675 604.116 581.378 582.771 589.285 571.631C576.788 580.959 557.07 595.421 549.789 609.295C547.267 614.101 541.6 634.611 538.65 636.836C537.439 637.749 535.231 638.043 533.767 637.837C530.763 637.414 528.387 634.923 526.72 632.572C524.842 629.922 522.832 625.686 523.311 622.335C523.514 620.913 524.065 619.428 524.54 618.076C515.54 627.889 506.364 638.245 491.963 638.621C484.956 638.805 478.708 636.404 473.715 631.478C467.939 625.781 464.349 617.296 462.738 609.459C472.772 600.3 489.082 587.747 492.885 574.567C479.581 578.164 464.299 593.174 457.55 604.837C450.508 617.009 452.455 632.55 456.004 645.508C462.813 670.371 482.792 693.504 502.22 709.959C541.286 694.61 592.308 673.272 633.671 691.129C643.838 695.519 653.336 702.903 657.523 713.46C660.325 720.523 660.045 727.859 656.866 734.733C651.709 745.885 639.857 753.579 628.615 757.539C599.21 767.896 562.45 758.912 535.229 745.689C524.31 740.385 514.001 733.871 503.336 728.077Q482.281 738.355 461.567 749.303C498.278 770.057 558.553 806.941 570.445 850.197Q570.924 851.965 571.274 853.763Q571.625 855.561 571.846 857.379Q572.066 859.198 572.156 861.027Q572.245 862.857 572.203 864.688Q572.16 866.52 571.987 868.343Q571.813 870.167 571.509 871.973Q571.204 873.779 570.771 875.559Q570.338 877.339 569.778 879.083C578.388 870.479 590.76 861.837 601.285 855.68L601.02 855.013C598.003 847.224 598.815 838.545 602.173 830.996C608.128 817.612 621.314 808.4 634.692 803.421C641.81 800.772 671.414 792.081 677.701 795.737C678.854 796.407 679.228 797.108 679.41 798.393C680.972 809.445 663.352 839.73 656.199 848.142C648.15 857.609 636.728 867.015 623.82 867.903C617.041 868.37 609.438 866.723 604.276 862.098Q603.815 861.682 603.371 861.248C587.231 875.616 555.094 903.057 546.501 922.156C542.897 930.168 541.814 938.461 540.739 947.072C595.087 938.582 648.35 925.599 699.274 904.448C703.652 897.656 706.667 889.298 709.559 881.763C726.748 836.979 731.072 784.907 720.943 738.056C719.412 730.97 711.054 705.314 714.663 700.336C715.39 699.333 716.324 698.993 717.52 698.897C719.219 698.76 721.176 699.827 722.378 700.944C728.588 706.717 735.889 757.408 737.005 767.78C737.757 774.766 737.453 782.006 738.704 788.895Q747.93 780.794 757.411 772.994C753.731 763.33 752.702 752.939 757.101 743.32C766.12 723.596 793.156 710.792 812.709 703.641C817.961 701.721 823.654 699.741 829.165 698.771C827.126 724.455 818.395 756.844 798.006 774.025C791.17 779.785 782.98 782.985 773.973 782.071C769.29 781.596 764.971 780.011 760.873 777.735C754.195 786.663 744.816 793.452 737.94 802.354C734.959 837.381 728.696 863.411 717.02 896.604C730.73 890.016 744.233 883.431 756.791 874.782C812.228 836.607 854.915 772.649 876.972 709.743C895.923 655.696 901.258 601.04 895.762 544.194C895.018 536.498 893.723 519.499 890.83 513.029C886.019 502.27 860.232 486.25 849.695 479.783C846.62 485.544 842.477 490.112 836.016 492.061C828.554 494.311 820.572 492.352 813.98 488.571C800.029 480.571 783.892 457.227 779.858 441.771C779.735 441.3 779.648 440.819 779.557 440.341C794.863 434.889 814.852 435.897 829.513 442.897C838.37 447.126 846.065 453.825 849.258 463.343C850.144 465.987 850.474 468.791 850.968 471.527C863.624 477.807 876.021 485.011 886.029 495.13C873.245 448.675 858.599 412.85 830.466 373.296C824.985 365.589 819.624 357.21 812.547 350.876C804.254 363.99 795.488 379.843 799.224 395.931C801.448 405.51 809.981 409.32 811.058 413.115C811.185 413.564 810.805 414.397 810.572 414.778C809.289 416.874 806.983 418.269 804.828 419.321C798.396 422.464 791.396 424.81 784.721 427.402Q770.636 432.941 756.638 438.697L708.585 458.062C701.574 460.873 694.52 464.235 687.399 466.695ZM313.092 929.25Q305.798 917.838 298.991 906.13C289.557 901.029 280.019 896.142 271.075 890.197C207.346 847.839 149.883 776.621 127.93 702.771Q123.007 685.701 119.244 668.338Q115.481 650.975 112.896 633.398C104.355 577.71 105.177 532.258 124.212 478.833Q128.559 466.514 133.826 454.56Q139.094 442.606 145.253 431.086Q148.738 424.801 152.408 418.624Q156.079 412.446 159.933 406.381Q163.786 400.316 167.819 394.369Q171.853 388.421 176.062 382.597Q180.271 376.773 184.652 371.077Q189.033 365.382 193.582 359.819Q198.132 354.257 202.845 348.833Q207.559 343.409 212.432 338.128Q217.306 332.847 222.335 327.715Q227.364 322.582 232.544 317.602Q237.724 312.621 243.051 307.798Q248.377 302.975 253.846 298.313Q259.314 293.651 264.919 289.155Q270.524 284.658 276.261 280.331Q281.998 276.004 287.862 271.85Q293.726 267.697 299.711 263.72C301.746 254.701 304.194 246.7 309.869 239.28C298.913 237.014 287.873 236.533 281.17 226.299C279.357 223.531 275.2 212.307 273.688 211.492C185.767 265.067 121.66 357.065 97.5485 456.684C71.5917 563.927 92.339 682.089 149.795 775.925C184.184 832.089 240.429 890.426 296.216 925.379C303.4 929.88 311.447 935.886 319.302 938.819L319.611 938.55C317.466 935.483 315.428 932.161 313.092 929.25ZM738.799 266.444C742.372 267.323 748.264 268.327 750.458 271.643C751.416 273.09 751.835 274.717 751.447 276.441C751.135 277.83 750.083 279.418 749.379 280.653C756.652 284.469 763.646 290.309 770.16 295.307Q773.896 298.215 777.553 301.222Q781.21 304.228 784.787 307.33Q788.363 310.432 791.857 313.627Q795.35 316.822 798.758 320.109Q802.165 323.396 805.485 326.771Q808.804 330.147 812.033 333.609Q815.262 337.071 818.399 340.617Q821.535 344.163 824.577 347.791Q827.618 351.419 830.563 355.127Q833.508 358.834 836.353 362.617Q839.199 366.401 841.943 370.259Q844.688 374.116 847.329 378.045Q849.971 381.974 852.507 385.971Q855.044 389.969 857.474 394.032Q859.904 398.095 862.226 402.22Q864.548 406.346 866.76 410.532Q874.749 426.122 881.697 442.203C884.897 449.645 887.612 457.376 891.616 464.432C889.794 449.28 893.671 436.793 903.124 424.787C906.193 420.89 909.722 417.349 913.312 413.933C921.694 426.274 928.172 444.362 925.211 459.437C924.102 465.081 921.468 470.392 916.588 473.68C913.013 476.088 909.304 476.854 905.086 477.247C903.974 485.417 900.716 494 900.862 502.198C901.03 511.657 904.72 521.687 906.164 531.097C909.284 551.426 910.057 571.98 909.971 592.516C909.937 600.826 910.064 609.935 908.764 618.122C907.273 635.869 905.454 658.672 899.912 675.594C905.334 665.7 911.149 655.985 916.3 645.948C923.878 631.183 930.145 616.127 935.755 600.513C939.093 591.223 942.542 581.475 943.926 571.676C946.033 556.75 945.156 541.136 944.471 526.133C943.242 499.204 938.294 471.566 930.729 445.716C909.599 373.512 871.851 316.971 817.052 265.809C796.78 246.882 771.816 227.001 748.055 212.813C747.227 224.925 746.831 235.108 754.463 245.307C756.659 248.243 759.628 251.237 761.002 254.652C761.877 256.826 761.857 258.932 760.003 260.629C755.353 264.884 744.819 265.798 738.799 266.444ZM120.531 537.171C122.8 533.079 125.317 528.978 128.202 525.291C145.758 501.407 168.929 481.156 192.43 463.313C217.985 443.909 248.826 426.534 267.357 399.641C272.277 392.501 275.952 384.765 279.332 376.807C269.867 362.195 266.399 351.237 270.218 333.595C272.67 322.27 278.343 309.998 288.304 303.402C294.11 299.556 299.723 299.79 306.341 300.189C302.369 292.585 300.677 284.759 298.8 276.463C282.122 289.47 265.033 301.696 249.344 315.953C208.507 353.063 170.087 400.637 146.716 450.822Q140.173 465.092 135.029 479.924Q129.885 494.756 126.188 510.013C124.004 518.947 121.762 528.049 120.531 537.171ZM608.757 205.865C598.992 221.188 592.442 238.333 596.609 256.677C598.318 264.2 601.774 270.623 606.394 276.735L608.892 279.837C634.572 275.161 660.094 268.982 685.559 263.227C703.862 259.09 722.277 255.433 740.552 251.177C734.439 232.447 732.532 216.023 739.838 197.316C740.541 195.516 745.306 184.969 744.574 184.09L744.269 184.065Q705.062 192.372 665.371 197.92L630.242 202.644C623.249 203.535 615.446 203.644 608.757 205.865ZM315.868 376.28C318.827 355.891 322.349 335.519 324.18 314.987C315.146 313.339 305.77 309.787 296.559 309.943C286.41 318.091 280.555 328.02 279.044 341.111C277.798 351.9 280.336 361.286 287.217 369.745C287.315 369.865 287.416 369.981 287.516 370.099L308.969 374.694C311.272 375.171 313.627 375.563 315.868 376.28ZM595.169 433.624C594.747 411.194 597.517 394.544 605.683 373.644Q571.96 366.01 538.099 359.017C526.155 356.554 513.96 354.696 502.129 351.806C500.597 372.993 496.28 393.902 494.325 415.001C504.905 417.189 592.916 436.919 595.164 435.509L595.169 433.624ZM382.54 85.3421C390.345 87.0787 398.165 87.9869 405.946 90.067C442.369 99.804 475.248 118.968 503.912 143.185C509.356 147.785 526.535 166.507 529.72 168.171C522.88 158.375 517.127 148.254 509.459 139C478.482 101.614 434.129 77.9301 386.662 69.4528Q379.452 68.1841 372.165 67.481C375.785 73.3017 379.346 79.2773 382.54 85.3421ZM714.131 170.294C710.879 168.372 691.016 167.328 685.528 166.651Q666.927 164.366 648.389 161.619C638.28 160.025 627.559 157.49 617.342 157.432C616.277 158.694 615.117 160.471 613.533 161.014C612.935 160.667 612.145 159.919 611.435 160.122C609.624 160.64 609.139 162.766 607.074 162.971C605.205 161.657 605.912 159.845 604.657 158.577C604.28 158.196 594.082 157.858 592.62 157.776C573.853 156.732 555.055 155.087 536.302 153.736C537.949 160.422 539.592 167.111 540.213 173.986C565.258 175.652 590.474 177.595 615.587 177.541Q647.547 177.196 679.35 174.013C690.896 172.964 702.714 172.31 714.131 170.294ZM626.58 365.41C621.004 346.076 622.037 327.913 631.907 309.952L632.359 309.146Q620.471 306.474 608.509 304.153C603.6 303.178 598.423 302.438 593.638 301.003C592.997 308.655 591.538 316.326 590.423 323.926Q587.737 341.403 586.387 359.033C592.697 359.818 623.813 367.345 626.872 366.15L626.58 365.41ZM534.842 288.186C515.868 283.419 496.606 279.779 477.5 275.582C464.9 272.814 450.914 268.761 438.181 267.343C436.865 277.926 435.123 288.448 433.65 299.009C432.414 307.862 431.528 316.81 430.064 325.624C452.808 330.077 475.443 335.361 498.132 340.128C507.676 342.133 517.29 344.581 526.946 345.938C527.824 326.747 531.867 307.175 534.842 288.186ZM337.3 305.853C341.675 306.846 366.365 313.135 368.606 312.11C370.712 302.467 371.632 292.487 372.971 282.712C374.24 273.448 375.949 264.164 376.865 254.861Q361.354 251.087 345.766 247.648Q343.278 267.07 340.246 286.414C339.255 292.831 337.832 299.398 337.3 305.853ZM643.244 364.064C663.054 355.202 683.175 347.091 703.078 338.451C715.296 333.147 727.579 326.579 740.255 322.6C734.666 315.844 730.322 309.236 731.194 299.988C731.961 291.841 736.95 285.786 739.785 278.384L739.222 278.013Q721.35 284.39 703.402 290.551C683.107 297.301 662.642 303.616 642.509 310.845C633.702 326.016 630.571 341.883 635.13 358.967C635.655 360.936 636.56 363.972 638.463 365.055C639.601 365.702 642.128 364.504 643.244 364.064ZM742.596 289.23C739.877 294.631 737.074 300.5 738.978 306.666C740.787 312.524 751.56 321.223 748.948 325.441C747.998 326.975 746.381 327.735 744.845 328.555L779.59 336.781C786.328 338.346 793.271 339.535 799.893 341.508C802.049 342.032 804.219 342.523 806.359 343.109Q796.427 332.131 785.504 322.139Q774.58 312.147 762.762 303.23C756.184 298.345 749.203 294.047 742.596 289.23ZM407.489 68.5543C447.157 77.9012 484.746 102.378 511.117 133.149C515.144 137.847 518.751 142.842 522.155 148.006C524.506 151.572 526.835 156.165 529.842 159.186C527.397 152.725 523.068 147.229 519.642 141.278C499.738 106.706 473.142 79.9877 436.417 63.4845C425.298 58.4877 412.529 54.1198 400.397 52.6996C402.211 58.1993 405.251 63.2199 407.489 68.5543ZM377.792 314.664C392.061 317.095 406.645 320.469 420.701 323.957Q424.203 294.53 428.736 265.244C414.514 262.69 400.021 259.991 385.994 256.559C384.573 269.275 382.529 281.898 380.675 294.555C379.7 301.207 379.153 308.096 377.792 314.664ZM363.341 103.598C411.221 103.156 456.312 118.745 495.426 146.179Q504.432 152.597 512.77 159.862C516.507 163.092 520.329 167.173 524.568 169.702C519.526 162.435 511.029 156.372 504.286 150.64C470.333 121.78 432.069 99.5932 387.764 91.6394C380.351 90.3086 372.729 89.2555 365.198 88.9696C360.764 88.8013 356.302 89.0906 351.881 88.9047C354.628 94.4498 359.388 98.9002 363.341 103.598ZM358.433 158.773C346.29 176.883 341.252 197.663 345.488 219.275C346.533 224.603 348.062 229.91 350.359 234.837L355.466 235.577L356.311 235.242C355.978 230.112 352.741 224.957 351.759 219.838C347.955 199.998 352.7 177.466 362.995 160.256C361.464 159.803 359.904 159.401 358.433 158.773ZM733.122 335.462Q703.945 347.761 674.931 360.44C665.456 364.514 655.579 368.107 646.358 372.712C664.082 376.322 682.05 379.403 699.556 383.942C701.085 383.448 702.644 382.992 704.137 382.397Q729.54 372.705 755.097 363.426C767.542 359.009 780.75 355.162 792.782 349.741Q774.284 344.831 755.656 340.438C748.272 338.627 740.703 336.24 733.122 335.462ZM433.828 56.4013Q436.495 57.5351 439.125 58.7514Q441.756 59.9677 444.347 61.2653Q446.938 62.5629 449.488 63.9406Q452.037 65.3182 454.543 66.7746Q457.048 68.2309 459.507 69.7645Q461.966 71.2982 464.376 72.9076Q466.786 74.5171 469.145 76.2007Q471.503 77.8844 473.808 79.6407Q476.114 81.397 478.363 83.2242Q480.612 85.0514 482.804 86.9478Q484.995 88.8441 487.126 90.8078Q489.258 92.7714 491.327 94.8005Q493.396 96.8295 495.401 98.922Q497.406 101.014 499.344 103.168Q501.283 105.322 503.154 107.535Q505.025 109.749 506.826 112.019C510.771 117.01 514.8 122.369 518.076 127.809C520.44 131.735 526.184 145.019 529.411 146.759C513.549 101.949 480.453 60.3021 437.106 39.4381C434.59 38.2273 432.011 37.2255 429.391 36.2685C430.93 42.951 432.149 49.763 433.828 56.4013ZM318.997 228.939C319.225 227.707 319.316 228.276 318.862 227.299C310.587 209.493 310.38 188.371 317.23 170.152C319.306 164.632 322.044 159.386 324.773 154.167C322.958 153.873 321.114 153.632 319.327 153.201C307.133 173.749 302.56 193.994 308.567 217.489C309.363 220.6 310.321 223.639 311.366 226.674C313.933 227.375 316.471 228.097 318.997 228.939ZM360.704 141.207C351.567 141.67 342.526 142.114 333.463 143.419L504.375 175.436Q514.952 177.348 525.452 179.642C518.418 174.174 509.65 170.91 501.471 167.523Q494.61 164.675 487.635 162.12Q480.659 159.566 473.582 157.31Q466.504 155.055 459.337 153.102Q452.17 151.149 444.926 149.502Q437.683 147.855 430.376 146.517Q423.069 145.18 415.711 144.153Q408.354 143.127 400.96 142.415Q393.566 141.702 386.148 141.304C377.848 140.867 368.952 140.333 360.704 141.207ZM606.627 439.059C610.332 439.913 614.178 440.617 617.79 441.792C617.833 441.475 617.879 441.16 617.917 440.843C618.43 436.575 617.472 431.886 617.587 427.546C618.063 409.627 620.189 394.96 627.355 378.281Q621.602 376.813 615.783 375.634C607.687 396.78 603.388 416.341 606.627 439.059ZM330.073 114.192C336.78 121.731 344.329 129.078 350.558 136.985C356.959 135.956 363.966 136.276 370.46 136.165C413.621 135.432 454.924 144.566 495.367 159C502.63 161.827 509.308 165.134 516.298 168.535C510.777 163.966 504.697 159.969 498.816 155.881C467.365 134.019 434.12 117.414 396.059 111.124C385.151 109.321 373.931 108.113 362.875 109.138C362.718 109.153 362.562 109.185 362.406 109.209Q346.09 110.728 330.073 114.192ZM795.797 358.111C786.86 361.94 777.517 364.975 768.366 368.262L724.003 384.188C714.575 387.551 704.86 390.778 695.726 394.881C686.811 409.999 681.109 425.389 685.652 442.981C686.615 446.71 687.924 451.186 690.142 454.342L691.13 454.759C714.428 444.663 738.143 435.422 761.707 425.963C772.16 421.767 786.705 416.805 796.21 411.591C789.457 402.997 788.275 392.486 789.531 381.89C790.08 377.257 791.182 372.598 792.564 368.147C793.505 365.116 795.638 361.181 795.797 358.111ZM898.475 494.092L899.921 489.395C901.326 485.089 902.788 480.798 903.901 476.406C898.863 473.883 896.091 470.402 892.352 466.357C894.554 475.636 896.914 484.659 898.475 494.092ZM378.236 390.179C393.283 393.302 408.6 395.923 423.418 400.033C426.122 379.157 429.88 358.261 431.373 337.251C416.584 333.587 401.517 331.036 386.68 327.567C383.486 348.344 380.872 369.321 378.236 390.179ZM589.921 201.713C578.441 216.875 569.945 235.765 572.697 255.146C573.354 259.775 577.629 277.018 581.248 279.07C581.752 279.356 582.222 279.486 582.761 279.663C584.041 279.889 584.992 280.348 586.172 279.732C586.669 278.055 581.407 266.515 580.503 262.961C578.871 256.538 578.156 249.566 578.383 242.947C578.739 232.542 580.726 222.493 585.813 213.334C587.623 210.076 590.401 206.545 591.423 202.989C590.826 201.939 590.921 202.143 589.921 201.713ZM326.382 303.137L327.316 303.169C331.469 284.496 333.197 265.18 336.311 246.313C331.202 244.721 326.176 243.562 320.873 242.846C312.658 251.119 309.491 261.303 309.518 272.861C309.542 283.174 312.857 292.826 319.271 300.901C321.628 301.732 323.953 302.532 326.382 303.137ZM666.015 570.463C655.087 574.085 647.362 582.9 642.513 593.141C641.76 594.733 641.327 596.032 641.348 597.795L641.912 598.946C643.465 599.398 644.24 599.031 645.792 598.661C655.686 595.119 664.044 591.103 668.673 581.068C669.736 578.763 671.021 575.583 670.109 573.022C669.777 572.091 669.213 571.64 668.481 571.039C667.668 570.825 666.85 570.555 666.015 570.463ZM631.376 298.828C634.49 300.102 637.584 301.441 640.803 302.43C649.811 300.032 716.743 278.695 719.359 276.563C718.777 276.606 718.153 276.594 717.594 276.761C708.397 277.228 699.14 279.572 690.178 281.587C674.645 285.08 659.152 288.907 643.527 291.963C636.775 293.284 629.993 294.781 623.123 295.321C625.844 296.628 628.495 297.905 631.376 298.828ZM368.843 387.885C371.534 367.381 373.292 346.109 377.829 325.951C363.282 323.082 348.786 320.072 334.205 317.358C331.178 337.783 329.036 358.274 325.571 378.643C340.042 381.544 354.285 385.391 368.843 387.885ZM616.056 971.672C592.915 964.49 561.134 962.087 536.944 961.695C518.515 961.396 500.082 961.965 481.698 960.24C433.906 955.755 385.981 940.95 341.15 924.241C331.155 920.516 321.4 916.207 311.446 912.393C319.033 923.756 327.548 938.157 337.601 947.278C352.13 960.461 397.817 972.915 417.654 976.864C484.053 990.082 536.732 988.06 602.879 973.758C607.264 972.816 611.603 972.192 616.056 971.672ZM636.988 965.291C651.362 961.477 665.207 955.972 678.928 950.291Q682.932 948.613 686.901 946.853Q690.87 945.094 694.803 943.255Q698.735 941.416 702.63 939.497Q706.524 937.579 710.379 935.582Q714.234 933.585 718.048 931.51Q721.862 929.436 725.632 927.284Q729.403 925.133 733.13 922.905Q736.856 920.678 740.537 918.376Q744.218 916.073 747.851 913.697Q751.484 911.321 755.069 908.871Q758.653 906.422 762.187 903.9Q765.722 901.379 769.204 898.786Q772.686 896.193 776.115 893.531Q779.544 890.868 782.919 888.136Q786.293 885.405 789.612 882.606Q792.93 879.806 796.191 876.94Q799.452 874.075 802.655 871.143Q805.857 868.212 808.999 865.216Q812.142 862.22 815.223 859.162Q818.304 856.103 821.322 852.983Q824.341 849.862 827.295 846.681Q830.25 843.5 833.14 840.26Q836.029 837.02 838.853 833.722Q841.676 830.424 844.432 827.07Q847.188 823.716 849.876 820.306Q852.563 816.896 855.181 813.433Q857.799 809.97 860.347 806.454Q862.894 802.939 865.37 799.372Q867.845 795.806 870.248 792.19Q872.651 788.574 874.98 784.91Q877.309 781.246 879.564 777.536Q881.818 773.826 883.997 770.071C908.477 727.987 924.194 684.353 935.917 637.312C936.722 634.082 940.637 621.29 939.852 618.684C939.812 618.551 939.736 618.433 939.678 618.308C932.329 637.616 924.063 656.609 912.471 673.789C906.262 682.992 898.054 691.676 893.07 701.568C889.529 708.597 887.338 716.403 884.532 723.748Q878.753 738.743 871.592 753.13C846.129 805.157 808.919 854.803 760.03 886.938C745.62 896.41 729.879 904.176 714.17 911.223Q698.548 918.12 682.55 924.094Q666.552 930.068 650.233 935.099Q633.913 940.129 617.328 944.199Q600.743 948.269 583.949 951.364C576.71 952.67 569.292 954.349 561.997 955.113L561.693 955.811L561.542 955.797L561.087 955.168L561.18 955.699L562.484 955.448L562.413 955.77L571.625 956.027C589.574 957.139 619.848 960.571 636.988 965.291ZM544.818 290.391C542.755 299.373 541.945 308.793 540.716 317.935C539.36 328.019 537.677 338.048 536.149 348.106C549.464 350.229 562.676 353.462 575.856 356.318C578.122 346.893 578.845 336.885 579.995 327.266Q581.714 313.101 584.104 299.034C571.696 294.75 557.741 292.72 544.818 290.391ZM484.929 412.853C485.564 401.386 487.587 389.813 488.952 378.402C490.051 369.211 490.429 359.215 492.647 350.257C481.166 347.227 469.559 344.805 457.955 342.305C452.489 341.127 446.456 340.306 441.197 338.51C438.149 359.54 435.442 380.886 433.146 402.008C450.381 405.002 467.945 408.664 484.929 412.853ZM637.061 380.981C627.807 402.528 626.232 421.002 629.133 444.046C637.235 445.669 673.566 455.063 678.285 453.243C678.238 452.108 678.411 452.534 678.033 451.886C672.033 435.62 672.809 418.355 680.161 402.599C681.887 398.902 683.901 395.209 686.323 391.918C670.149 387.32 653.216 385.454 637.061 380.981ZM517.792 721.471C536.869 734.329 553.933 742.835 576.115 749.134C596.729 753.48 619.914 755 638.371 742.901C643.622 739.459 648.164 734.55 649.557 728.259C650.728 722.971 649.165 717.659 646.127 713.282C639.281 703.421 626.371 698.64 614.97 696.842Q609.984 696.014 604.932 695.892Q599.88 695.769 594.86 696.354C569.615 698.655 540.229 709.962 517.792 721.471ZM430.452 745.385C394.484 727.268 341.637 709.063 300.861 712.705C283.816 714.663 263.658 717.624 252.303 732.029C248.088 737.376 245.758 743.926 246.574 750.782C247.613 759.505 253.846 766.742 260.63 771.835C278.711 785.408 304.36 786.9 325.943 783.744Q335.933 782.184 345.722 779.656Q355.512 777.128 365.008 773.655Q386.11 765.653 406.724 756.466C414.61 752.918 422.406 748.476 430.452 745.385Z"/>
		<path fill="#344960" d="M788.821 532.367C795.001 533.15 801.166 537.275 806.488 540.321C798.486 547.398 791.909 555.395 787.04 564.958C791.124 564.398 799.567 563.426 803.187 565.608C804.406 566.343 804.462 566.554 804.702 567.848C804.369 568.477 804.056 569.018 803.487 569.467C798.662 573.274 789.727 571.908 784.044 571.47C777.899 582.048 772.971 594.109 769.778 605.895C768.379 611.057 765.514 621.885 768.735 626.665C769.531 627.845 770.353 628.461 771.779 628.696C779.384 629.947 793.882 609.304 797.239 603.574C800.043 598.787 801.418 592.34 805.683 588.707C807.07 588.417 807.122 588.467 808.415 589.07C808.969 590.179 809.149 590.576 809.024 591.858C808.131 601.004 792.516 621.488 785.623 627.461C779.568 632.707 771.84 637.171 763.56 636.414C759.095 636.006 754.662 634.21 751.781 630.669C748.052 626.086 747.181 618.887 747.92 613.162C737.948 623.722 726.648 632.325 712.397 636.131C701.7 638.988 691.329 639.069 681.555 633.441Q680.86 632.878 680.265 632.211Q679.669 631.545 679.188 630.791Q678.707 630.038 678.353 629.217Q677.999 628.396 677.781 627.529C677.022 624.57 677.039 619.002 679.045 616.463C679.825 615.476 680.568 614.983 681.848 614.891C685.412 614.636 688.966 624.578 692.082 627.091C694.233 627.72 696.602 627.795 698.754 627.075C702.369 625.865 706.738 622.814 708.361 619.271C712.392 610.468 702.877 597.171 699.882 588.901C697.673 582.798 696.951 574.943 699.913 568.998C702.462 563.883 707.874 560.059 713.241 558.361C718.464 556.709 725.279 557.124 730.113 559.823C734.746 562.409 736.788 566.43 738.215 571.295C737.517 574.155 736.639 577.091 734.855 579.478C734.02 580.595 733.63 581.254 732.236 581.462C730.79 579.572 730.826 576.143 730.297 573.83C729.905 572.117 729.182 570.05 727.446 569.267C726.415 568.803 725.358 568.928 724.321 569.281C721.813 570.135 720.135 572.151 719.089 574.534C715.639 582.397 721.41 593.572 724.05 601.102C727.093 609.783 727.458 617.634 723.405 626.109C752.555 604.947 747.377 603.102 759.16 571.744C755.306 571.412 751.122 570.917 747.789 568.783C746.723 568.101 746.444 567.675 746.223 566.462L747.077 565.461C751.867 563.461 757.514 565.026 762.41 565.985Q763.521 563.526 764.779 561.138Q766.037 558.75 767.437 556.442Q768.836 554.134 770.372 551.915Q771.909 549.696 773.576 547.574Q775.243 545.451 777.036 543.433Q778.828 541.416 780.739 539.51Q782.65 537.604 784.672 535.816Q786.694 534.029 788.821 532.367Z"/>
		<path fill="#344960" d="M396.654 552.072C402.139 551.937 407.375 552.748 412.168 555.587C418.095 559.099 421.629 565.26 423.268 571.798C426.766 585.757 422.595 601.667 415.279 613.728C408.042 625.659 398.117 633.983 384.47 637.301C378.893 637.805 373.166 636.895 368.322 633.986C362.657 630.584 358.981 624.826 357.362 618.512C353.939 605.158 356.791 588.71 363.759 576.929C371.44 563.942 382.088 555.762 396.654 552.072ZM384.334 629.265C398.39 622.529 407.454 610.749 412.664 596.168C414.816 590.146 417.69 580.407 414.776 574.311C413.722 572.107 411.687 570.353 409.324 569.693C407.46 569.172 405.163 569.4 403.249 569.591C390.748 574.515 381.47 583.953 376.12 596.261C372.784 603.938 369.315 616.951 372.575 625.074C373.43 627.206 374.986 628.997 377.203 629.755C379.465 630.529 382.13 629.995 384.334 629.265Z"/>
		<path fill="#344960" d="M320.932 554.231C326.927 553.873 332.594 554.089 338.044 556.931C343.778 559.92 347.557 565.09 349.429 571.203C353.337 583.961 348.26 599.275 342.255 610.575C335.417 623.442 324.832 633.249 310.775 637.476C304.37 638.192 297.969 637.376 292.429 633.85C286.564 630.116 283.024 624.056 281.521 617.387C278.474 603.874 282.297 589.339 289.647 577.835C296.921 566.45 307.501 557.146 320.932 554.231ZM306.814 630.917C320.407 625.778 329.949 613.62 335.847 600.709C339.146 593.486 343.025 582.04 340.129 574.166C339.254 571.787 337.379 569.588 334.962 568.679C333.709 568.207 332.25 567.955 330.915 567.956C317.887 572.404 308.948 582.723 302.959 594.813C298.959 602.884 294.439 615.967 297.577 624.949C298.464 627.487 300.117 629.293 302.566 630.412C304 631.068 305.274 631.033 306.814 630.917Z"/>
		<path fill="#344960" d="M233.022 530.48C233.832 530.668 234.645 530.876 235.436 531.134C238.453 532.118 241.389 534.933 242.785 537.755C247.004 546.288 236.808 558.603 232.446 565.637Q228.689 571.664 225.551 578.036C221.943 585.358 219.447 593.151 216.906 600.888C225.892 588.323 236.787 574.459 249.88 566.102C253.697 563.666 258.794 561.115 263.409 562.306C267.844 563.449 271.495 567.821 273.583 571.68C277.389 578.711 277.383 586.786 275.129 594.285C270.205 610.67 257.889 624.895 242.798 632.76C233.804 637.448 224.944 639.14 215.151 636.019C217.364 632.431 225.335 627.804 228.849 624.431Q233.902 619.526 238.494 614.187Q243.085 608.847 247.177 603.116C250.633 598.222 258.852 584.591 257.007 578.577C256.611 577.285 256.059 577.045 254.975 576.448C246.901 576.223 225.827 603.329 220.717 610.858C218.403 614.268 213.144 624.606 209.99 626.67C208.902 627.383 207.201 627.682 205.953 627.278C204.407 626.777 203.267 625.321 202.508 623.953C196.464 613.052 197.272 600.101 200.661 588.521C204.913 573.992 220.036 537.585 233.022 530.48Z"/>
		<path fill="#677787" d="M525.503 209.563C530.246 209.339 534.547 209.644 538.903 211.718Q539.423 211.969 539.929 212.247Q540.435 212.525 540.926 212.828Q541.418 213.131 541.893 213.459Q542.368 213.787 542.826 214.139Q543.284 214.49 543.723 214.865Q544.162 215.24 544.581 215.636Q545.001 216.033 545.399 216.451Q545.798 216.868 546.175 217.306Q546.552 217.743 546.905 218.199Q547.259 218.656 547.589 219.129Q547.919 219.603 548.225 220.093Q548.53 220.583 548.81 221.088Q549.09 221.592 549.344 222.111Q549.598 222.63 549.825 223.16Q550.052 223.691 550.251 224.233Q550.451 224.775 550.622 225.326Q550.798 225.885 550.946 226.453Q551.094 227.021 551.212 227.595Q551.331 228.17 551.421 228.749Q551.51 229.329 551.57 229.913Q551.63 230.496 551.661 231.082Q551.691 231.668 551.692 232.255Q551.693 232.841 551.664 233.427Q551.634 234.013 551.576 234.597Q551.517 235.18 551.429 235.76Q551.341 236.34 551.223 236.915Q551.106 237.49 550.96 238.058Q550.813 238.626 550.638 239.186Q550.463 239.746 550.26 240.296Q550.057 240.846 549.826 241.386Q549.596 241.925 549.338 242.452Q549.08 242.979 548.796 243.492C545.515 249.334 539.842 252.749 533.527 254.437C528.064 255.209 522.921 254.922 517.964 252.235Q517.488 251.972 517.026 251.685Q516.564 251.398 516.117 251.088Q515.67 250.779 515.239 250.447Q514.808 250.116 514.394 249.763Q513.98 249.411 513.584 249.038Q513.189 248.665 512.812 248.273Q512.435 247.88 512.079 247.47Q511.722 247.059 511.387 246.632Q511.051 246.204 510.737 245.76Q510.423 245.316 510.132 244.856Q509.841 244.397 509.573 243.924Q509.305 243.451 509.061 242.965Q508.817 242.479 508.598 241.981Q508.379 241.484 508.185 240.976Q507.99 240.468 507.822 239.951Q507.653 239.434 507.511 238.909Q507.355 238.347 507.227 237.778Q507.098 237.208 506.998 236.634Q506.897 236.059 506.824 235.48Q506.751 234.901 506.707 234.319Q506.662 233.738 506.645 233.154Q506.629 232.571 506.64 231.988Q506.652 231.404 506.692 230.822Q506.732 230.24 506.8 229.661Q506.868 229.081 506.964 228.505Q507.06 227.93 507.184 227.36Q507.307 226.79 507.458 226.226Q507.609 225.662 507.788 225.107Q507.966 224.551 508.171 224.005Q508.376 223.458 508.607 222.923Q508.838 222.387 509.095 221.863Q509.351 221.339 509.633 220.828C513.184 214.508 518.766 211.457 525.503 209.563Z"/>
		<path fill="#677787" d="M61.6138 814.166C75.3215 814.957 120.742 826.181 131.307 833.222C131.916 834.632 131.487 835.809 131.28 837.312C124.987 837.78 67.9362 818.452 61.6138 814.166Z"/>
		<path fill="#677787" d="M662.536 809.228C662.717 809.63 662.606 809.319 662.505 810.217C656.881 816.061 650.488 821.21 644.448 826.621C631.673 838.066 618.949 849.409 605.391 859.936C604.942 858.662 604.3 856.96 604.629 855.603C605.948 850.16 640.351 823.561 646.583 819.14C651.721 815.496 657.015 812.257 662.536 809.228Z"/>
		<path fill="#677787" d="M812.367 716.497L812.255 717.76C805.839 727.324 769.91 770.884 762.246 775.46C761.925 774.509 761.257 772.981 761.403 771.981C762.351 765.465 804.514 722.472 812.367 716.497Z"/>
		<path fill="#677787" d="M592.137 33.0064C593.17 33.0072 594.223 33.0026 595.249 33.1267C598.165 33.4791 601.062 35.0506 602.719 37.5108C604.193 39.7011 604.631 42.3162 603.973 44.8757C602.95 48.8551 600.165 50.8837 596.763 52.8025C595.339 52.7489 593.868 52.7254 592.467 52.4432C589.653 51.8761 586.963 50.1635 585.524 47.6392Q585.311 47.2619 585.136 46.8654Q584.962 46.4688 584.827 46.0569Q584.693 45.645 584.6 45.2218Q584.507 44.7986 584.457 44.3682Q584.406 43.9379 584.399 43.5047Q584.391 43.0715 584.427 42.6397Q584.463 42.2078 584.541 41.7817Q584.619 41.3555 584.739 40.9392C585.851 36.9695 588.678 34.8862 592.137 33.0064Z"/>
		<path fill="#677787" d="M791.765 447.044C800.799 449.115 841.07 470.272 846.005 476.439C846.918 477.58 846.493 480.066 846.419 481.513C840.301 479.935 796.456 451.848 791.765 447.044Z"/>
		<path fill="#677787" d="M989.461 700.06L989.726 700.521C985.733 704.786 979.628 708.227 974.815 711.602Q957.99 723.355 941.009 734.88C940.518 733.926 939.599 731.978 939.909 730.903C942.014 723.622 981.202 704.013 989.461 700.06Z"/>
		<path fill="#677787" d="M909.224 425.34C910.164 428.55 905.845 447.549 905.342 452.538C904.612 459.788 905.681 467.342 904.23 474.475L903.454 474.68C900.28 458.792 901.85 439.893 909.224 425.34Z"/>
		<path fill="#677787" d="M31.5811 601.338C36.745 603.099 41.7386 607.847 45.8723 611.369C50.0696 614.946 63.1467 625.48 63.5414 630.474L61.7273 630.946C61.3964 630.86 61.023 630.871 60.7346 630.687C58.2357 629.096 51.621 621.164 48.9783 618.495C43.2664 612.728 36.7875 607.569 31.5811 601.338Z"/>
		<path fill="#677787" d="M616.538 144.593C619.57 144.506 623.094 144.127 626.037 144.989C627.404 145.389 627.645 145.696 628.322 146.926C627.039 147.359 625.714 147.481 624.369 147.573C620.99 147.803 619.014 146.807 616.538 144.593Z"/>
		<path fill="#344960" d="M551.568 36.1927C552.706 35.9994 554.397 35.6865 555.551 35.9748C556.798 36.2863 557.572 36.9765 558.176 38.0882C560.584 42.5161 557.183 51.3531 555.862 55.9899C552.543 54.1177 549.318 52.0627 546.071 50.0687C540.744 46.8526 535.783 43.0467 530.786 39.351C537.642 38.0584 544.616 36.8125 551.568 36.1927Z"/>
	</g>
	<g/>
</svg>
